<svg width="540" height="540" viewBox="0 0 540 540" fill="none" xmlns="http://www.w3.org/2000/svg">
<g clip-path="url(#clip0_2_2)">
<rect width="540" height="540" rx="40" fill="black"/>
<circle cx="127.5" cy="127.5" r="61.5" stroke="white" stroke-width="4"/>
<path d="M261.438 136.23H266.078V129.012C277.68 128.324 286.316 122.137 286.316 111.48V111.395C286.316 102.199 280.344 97.4297 268.699 94.8086L266.078 94.25V77.6211C271.406 78.2656 274.887 81.1875 275.531 85.8711L275.574 86.2578H285.586L285.543 85.5703C284.77 75.9453 277.207 69.7578 266.078 68.9844V61.7656H261.438V68.9844C249.965 69.7148 242.016 76.2461 242.016 86V86.0859C242.016 94.9805 247.859 100.094 259.031 102.586L261.438 103.102V120.418C254.777 119.73 251.77 116.422 250.996 112.125L250.91 111.652H240.898L240.941 112.254C241.629 122.18 249.922 128.324 261.438 129.012V136.23ZM252.371 85.3125V85.2695C252.371 81.5742 255.465 78.2227 261.438 77.5781V93.2188C254.863 91.7148 252.371 89.0938 252.371 85.3125ZM276.004 112.34V112.426C276.004 116.68 273.082 119.945 266.078 120.461V104.133C273.77 105.895 276.004 108.301 276.004 112.34ZM318.5 131.074C332.207 131.074 341.66 123.512 341.66 112.727V112.641C341.66 104.047 335.602 98.6328 326.449 97.7734V97.5586C333.883 96.0117 339.469 90.8984 339.469 83.207V83.1211C339.469 73.4961 331.176 66.9219 318.371 66.9219C305.867 66.9219 297.402 73.8828 296.5 84.3672L296.457 84.8828H306.77L306.812 84.4531C307.371 79.125 311.84 75.7305 318.371 75.7305C325.031 75.7305 328.812 78.9961 328.812 84.582V84.668C328.812 90.082 324.258 93.9492 317.426 93.9492H310.336V102.199H317.684C325.59 102.199 330.402 105.809 330.402 112.34V112.426C330.402 118.055 325.633 122.008 318.457 122.008C311.195 122.008 306.383 118.355 305.781 113.328L305.738 112.855H295.125L295.168 113.371C296.027 123.77 304.879 131.074 318.5 131.074ZM355.152 130.688C358.633 130.688 361.34 127.938 361.34 124.457C361.34 121.02 358.633 118.27 355.152 118.27C351.672 118.27 348.922 121.02 348.922 124.457C348.922 127.938 351.672 130.688 355.152 130.688ZM393.008 131.074C406.715 131.074 416.297 122.309 416.297 109.547V109.461C416.297 97.6875 407.789 89.1367 395.973 89.1367C389.742 89.1367 384.629 91.5859 381.922 95.7539H381.707L383.426 77.0625H412.645V67.9961H374.574L371.609 104.047H381.277C382.008 102.672 383.039 101.469 384.199 100.523C386.562 98.5469 389.613 97.4727 393.137 97.4727C400.398 97.4727 405.598 102.543 405.598 109.633V109.719C405.598 116.98 400.484 122.051 393.094 122.051C386.562 122.051 381.836 118.055 380.934 112.855L380.891 112.555H370.492L370.535 113.113C371.352 123.383 380.117 131.074 393.008 131.074ZM446.805 66.9219C433.441 66.9219 423.602 75.9023 423.602 88.4062V88.4922C423.602 100.137 432.023 108.73 443.969 108.73C452.348 108.73 458.535 104.434 460.984 98.7617H461.242C461.242 99.4492 461.199 100.094 461.156 100.738C460.727 112.469 456.559 122.008 446.59 122.008C441.047 122.008 437.266 119.258 435.59 115.004L435.461 114.617H424.461L424.547 115.09C426.48 124.457 435.074 131.074 446.547 131.074C462.359 131.074 471.855 118.828 471.855 98.332V98.2461C471.855 76.5039 460.469 66.9219 446.805 66.9219ZM446.805 100.18C439.758 100.18 434.516 95.1523 434.516 88.1055V88.0195C434.516 81.3164 440.059 75.9883 446.934 75.9883C453.895 75.9883 459.309 81.3594 459.309 88.2344V88.2773C459.309 95.1953 453.895 100.18 446.805 100.18Z" fill="white"/>
<path d="M378.113 185.516C384.967 185.516 390.102 181.369 391.068 175.203L391.09 174.988H386.32L386.256 175.182C385.096 179.113 382.238 181.262 378.113 181.262C372.377 181.262 368.66 176.664 368.66 169.488V169.467C368.66 162.291 372.355 157.736 378.113 157.736C382.281 157.736 385.16 159.949 386.191 163.58L386.32 164.01H391.09L391.047 163.816C390.08 157.693 384.945 153.482 378.113 153.482C369.326 153.482 363.74 159.627 363.74 169.467V169.488C363.74 179.328 369.326 185.516 378.113 185.516ZM394.453 185H399.093V171.529C399.093 168.156 400.941 166.201 403.927 166.201C404.83 166.201 405.646 166.309 406.011 166.459V162.141C405.646 162.076 405.066 161.969 404.4 161.969C401.822 161.969 399.931 163.623 399.201 166.266H399.093V162.398H394.453V185ZM417.108 185.451C422.587 185.451 426.067 182.186 426.798 178.598L426.841 178.361H422.436L422.372 178.533C421.792 180.23 419.966 181.648 417.216 181.648C413.52 181.648 411.179 179.156 411.093 174.881H427.099V173.312C427.099 166.523 423.21 161.969 416.872 161.969C410.534 161.969 406.452 166.695 406.452 173.764V173.785C406.452 180.918 410.47 185.451 417.108 185.451ZM416.893 165.771C419.923 165.771 422.114 167.684 422.501 171.594H411.157C411.565 167.812 413.886 165.771 416.893 165.771ZM438.711 185.451C441.955 185.451 444.448 183.818 445.801 181.176H445.887V185H450.549V153.998H445.887V166.244H445.801C444.448 163.58 441.869 161.969 438.668 161.969C432.996 161.969 429.258 166.48 429.258 173.678V173.699C429.258 180.896 432.953 185.451 438.711 185.451ZM439.936 181.455C436.262 181.455 434.006 178.512 434.006 173.699V173.678C434.006 168.908 436.284 165.943 439.936 165.943C443.416 165.943 445.909 168.994 445.909 173.678V173.699C445.909 178.404 443.438 181.455 439.936 181.455ZM457.392 158.918C458.918 158.918 460.099 157.715 460.099 156.254C460.099 154.771 458.918 153.568 457.392 153.568C455.888 153.568 454.685 154.771 454.685 156.254C454.685 157.715 455.888 158.918 457.392 158.918ZM455.072 185H459.713V162.398H455.072V185ZM471.991 185.451C472.937 185.451 473.818 185.344 474.355 185.258V181.67C474.011 181.713 473.603 181.756 473.109 181.756C471.154 181.756 470.122 181.068 470.122 178.77V166.094H474.355V162.398H470.122V156.512H465.374V162.398H462.13V166.094H465.374V179.049C465.374 183.561 467.523 185.451 471.991 185.451Z" fill="#8A8A8A"/>
<path d="M82.0312 365.531H85.5625V360.281C93.5312 359.75 99.7812 355.375 99.7812 347.719V347.688C99.7812 341.031 95.3438 337.625 87.0625 335.719L85.5625 335.375V322.312C89.5938 322.812 92.3125 325.156 92.75 328.781L92.7812 329.062H99.2812L99.25 328.562C98.75 321.75 93.2812 317.219 85.5625 316.625V311.375H82.0312V316.625C74.125 317.219 68.5312 321.875 68.5312 328.812V328.844C68.5312 335.188 72.75 338.812 80.75 340.656L82.0312 340.938V354.594C76.9688 354.062 74.7188 351.375 74.125 348.031L74.0625 347.688H67.5938L67.625 348.125C68.125 355.25 74.0938 359.688 82.0312 360.281V365.531ZM75.1562 328.438V328.375C75.1562 325.531 77.5312 322.875 82.0312 322.312V334.562C77 333.375 75.1562 331.312 75.1562 328.438ZM85.625 341.781C91.5 343.156 93.1562 345.062 93.1562 348.219V348.25C93.1562 351.594 90.9688 354.219 85.5625 354.656V341.75L85.625 341.781ZM117.314 361H124.158V315.906H117.251L105.376 324.344V330.969L117.158 322.844H117.314V361ZM150.346 361.75C161.096 361.75 167.565 352.781 167.565 338.469V338.406C167.565 324.094 161.096 315.156 150.346 315.156C139.565 315.156 133.128 324.094 133.128 338.406V338.469C133.128 352.781 139.565 361.75 150.346 361.75ZM150.346 355.906C143.909 355.906 140.19 349.281 140.19 338.469V338.406C140.19 327.594 143.909 321.031 150.346 321.031C156.753 321.031 160.503 327.594 160.503 338.406V338.469C160.503 349.281 156.753 355.906 150.346 355.906ZM199.192 315.906H192.974L180.755 371.938H187.005L199.192 315.906ZM212.976 361H219.726V340.688C219.726 336.438 222.57 333.281 226.57 333.281C230.383 333.281 232.789 335.719 232.789 339.531V361H239.414V340.438C239.414 336.281 242.195 333.281 246.195 333.281C250.195 333.281 252.476 335.75 252.476 340.031V361H259.258V338.406C259.258 331.812 255.008 327.5 248.508 327.5C243.82 327.5 239.945 329.969 238.258 333.969H238.101C236.789 329.844 233.476 327.5 228.945 327.5C224.633 327.5 221.289 329.781 219.883 333.219H219.726V328.125H212.976V361ZM278.634 361.656C288.04 361.656 294.227 355.156 294.227 344.562V344.5C294.227 333.969 287.977 327.5 278.602 327.5C269.259 327.5 263.04 334 263.04 344.5V344.562C263.04 355.125 269.196 361.656 278.634 361.656ZM278.665 356C273.384 356 269.946 351.844 269.946 344.562V344.5C269.946 337.312 273.415 333.156 278.602 333.156C283.884 333.156 287.321 337.312 287.321 344.5V344.562C287.321 351.812 283.946 356 278.665 356ZM298.166 361H304.916V341.844C304.916 336.719 307.979 333.281 312.729 333.281C317.416 333.281 319.729 336.062 319.729 341V361H326.51V339.719C326.51 332.156 322.354 327.5 315.135 327.5C310.166 327.5 306.791 329.75 305.072 333.094H304.916V328.125H298.166V361ZM343.293 361.656C344.668 361.656 345.949 361.5 346.73 361.375V356.156C346.23 356.219 345.636 356.281 344.918 356.281C342.074 356.281 340.574 355.281 340.574 351.938V333.5H346.73V328.125H340.574V319.562H333.668V328.125H328.949V333.5H333.668V352.344C333.668 358.906 336.793 361.656 343.293 361.656ZM351.294 361H358.044V341.969C358.044 336.844 361.138 333.281 365.794 333.281C370.544 333.281 373.294 336.531 373.294 341.969V361H380.044V340.688C380.044 332.75 375.419 327.5 368.388 327.5C363.481 327.5 359.95 329.719 358.2 333.531H358.044V315.906H351.294V361Z" fill="white"/>
<path d="M64 460C64 451.163 71.1634 444 80 444H459C467.837 444 475 451.163 475 460V460C475 468.837 467.837 476 459 476H80C71.1635 476 64 468.837 64 460V460Z" fill="url(#paint0_linear_2_2)"/>
<path d="M64 460C64 451.163 71.1634 444 80 444H459C467.837 444 475 451.163 475 460V460C475 468.837 467.837 476 459 476H80C71.1635 476 64 468.837 64 460V460Z" fill="#7000FF" fill-opacity="0.4"/>
<path d="M64 460C64 451.163 71.1634 444 80 444H459C467.837 444 475 451.163 475 460V460C475 468.837 467.837 476 459 476H80C71.1635 476 64 468.837 64 460V460Z" fill="#3D3D3D"/>
<path d="M64 460C64 451.163 71.1634 444 80 444H187C195.837 444 203 451.163 203 460V460C203 468.837 195.837 476 187 476H80C71.1634 476 64 468.837 64 460V460Z" fill="url(#paint1_linear_2_2)"/>
<path d="M64 460C64 451.163 71.1634 444 80 444H187C195.837 444 203 451.163 203 460V460C203 468.837 195.837 476 187 476H80C71.1634 476 64 468.837 64 460V460Z" fill="#FF00C7" fill-opacity="0.4"/>
<path d="M64 460C64 451.163 71.1634 444 80 444H192C200.837 444 208 451.163 208 460V460C208 468.837 200.837 476 192 476H80C71.1634 476 64 468.837 64 460V460Z" fill="url(#paint2_linear_2_2)"/>
<path d="M64 460C64 451.163 71.1634 444 80 444H192C200.837 444 208 451.163 208 460V460C208 468.837 200.837 476 192 476H80C71.1634 476 64 468.837 64 460V460Z" fill="#FF00C7" fill-opacity="0.4"/>
<path d="M64 460C64 451.163 71.1634 444 80 444H192C200.837 444 208 451.163 208 460V460C208 468.837 200.837 476 192 476H80C71.1634 476 64 468.837 64 460V460Z" fill="url(#paint3_linear_2_2)"/>
<path d="M64 460C64 451.163 71.1634 444 80 444H192C200.837 444 208 451.163 208 460V460C208 468.837 200.837 476 192 476H80C71.1634 476 64 468.837 64 460V460Z" fill="#FF00C7" fill-opacity="0.4"/>
<path d="M73.625 418.375C78.4062 418.375 81.7969 415.625 81.7969 411.766V411.734C81.7969 408.578 79.5781 406.578 76.2656 406.281V406.203C79.0156 405.625 81.0156 403.75 81.0156 400.953V400.922C81.0156 397.453 78.0781 395.078 73.5938 395.078C69.1875 395.078 66.1875 397.562 65.8438 401.328L65.8281 401.484H69.1094L69.125 401.344C69.3438 399.25 71.0938 397.938 73.5938 397.938C76.1406 397.938 77.6094 399.203 77.6094 401.375V401.406C77.6094 403.5 75.8594 405.016 73.2812 405.016H70.6406V407.734H73.375C76.3906 407.734 78.2344 409.156 78.2344 411.703V411.734C78.2344 413.922 76.375 415.453 73.625 415.453C70.8281 415.453 68.9375 414.047 68.7188 412.047L68.7031 411.875H65.3438L65.3594 412.078C65.6719 415.75 68.8125 418.375 73.625 418.375ZM97.6875 418.328C100.047 418.328 101.859 417.141 102.844 415.219H102.906V418H106.297V395.453H102.906V404.359H102.844C101.859 402.422 99.9844 401.25 97.6562 401.25C93.5312 401.25 90.8125 404.531 90.8125 409.766V409.781C90.8125 415.016 93.5 418.328 97.6875 418.328ZM98.5781 415.422C95.9062 415.422 94.2656 413.281 94.2656 409.781V409.766C94.2656 406.297 95.9219 404.141 98.5781 404.141C101.109 404.141 102.922 406.359 102.922 409.766V409.781C102.922 413.203 101.125 415.422 98.5781 415.422ZM114.594 418.297C116.766 418.297 118.672 417.172 119.625 415.406H119.688V418H123.078V406.672C123.078 403.375 120.531 401.25 116.516 401.25C112.469 401.25 110.016 403.422 109.781 406.25L109.766 406.422H112.953L112.984 406.281C113.266 404.969 114.469 404.047 116.422 404.047C118.516 404.047 119.688 405.141 119.688 406.953V408.188L115.219 408.453C111.328 408.688 109.109 410.438 109.109 413.297V413.328C109.109 416.281 111.312 418.297 114.594 418.297ZM112.516 413.25V413.219C112.516 411.828 113.641 410.938 115.672 410.812L119.688 410.562V411.844C119.688 413.984 117.891 415.594 115.516 415.594C113.703 415.594 112.516 414.688 112.516 413.25ZM128.266 423.484C131.484 423.484 133.203 422.172 134.422 418.766L140.547 401.562H136.984L132.844 414.938H132.734L128.594 401.562H124.938L130.922 418.016L130.641 418.797C130.078 420.391 129.203 420.812 127.609 420.812C127.156 420.812 126.766 420.75 126.5 420.688V423.328C126.906 423.406 127.609 423.484 128.266 423.484ZM148.641 418.328C152.516 418.328 155.328 416.266 155.328 413.266V413.25C155.328 410.891 154.047 409.562 150.688 408.781L148.016 408.172C146.25 407.75 145.578 407.062 145.578 406.047V406.031C145.578 404.719 146.719 403.859 148.531 403.859C150.438 403.859 151.562 404.859 151.766 406.297L151.781 406.406H154.953L154.938 406.219C154.766 403.422 152.422 401.25 148.531 401.25C144.75 401.25 142.188 403.266 142.188 406.203V406.219C142.188 408.609 143.734 410.109 146.859 410.828L149.547 411.438C151.312 411.859 151.906 412.469 151.906 413.531V413.547C151.906 414.875 150.688 415.719 148.656 415.719C146.578 415.719 145.453 414.828 145.141 413.312L145.109 413.156H141.766L141.781 413.297C142.125 416.297 144.531 418.328 148.641 418.328ZM164.578 418H167.953V395.453H164.578V418ZM178.438 418.328C182.422 418.328 184.953 415.953 185.484 413.344L185.516 413.172H182.312L182.266 413.297C181.844 414.531 180.516 415.562 178.516 415.562C175.828 415.562 174.125 413.75 174.062 410.641H185.703V409.5C185.703 404.562 182.875 401.25 178.266 401.25C173.656 401.25 170.688 404.688 170.688 409.828V409.844C170.688 415.031 173.609 418.328 178.438 418.328ZM178.281 404.016C180.484 404.016 182.078 405.406 182.359 408.25H174.109C174.406 405.5 176.094 404.016 178.281 404.016ZM189.312 418H192.703V404.25H195.984V401.562H192.641V399.875C192.641 398.422 193.359 397.688 194.875 397.688C195.297 397.688 195.719 397.719 196.047 397.766V395.266C195.594 395.188 194.844 395.125 194.156 395.125C190.812 395.125 189.312 396.625 189.312 399.812V401.562H187.047V404.25H189.312V418ZM204.406 418.328C205.094 418.328 205.734 418.25 206.125 418.188V415.578C205.875 415.609 205.578 415.641 205.219 415.641C203.797 415.641 203.047 415.141 203.047 413.469V404.25H206.125V401.562H203.047V397.281H199.594V401.562H197.234V404.25H199.594V413.672C199.594 416.953 201.156 418.328 204.406 418.328Z" fill="white"/>
<path d="M133.456 88V122.46L132.052 118.501L130.18 156.919L132.988 164.603L135.328 164.836C139.865 165.051 144.393 165.439 148.9 166V88H133.456Z" fill="#B20710"/>
<path d="M106 88V166L108.773 165.767L113.627 165.301L121.022 164.836L121.253 148.304V131.773L122.409 135.033L122.871 136.43L124.72 98.0119L124.027 96.1493L121.253 88.2328V88H106Z" fill="#B20710"/>
<path d="M106 88C106 88 121.388 143.415 121.388 142.484V131.773L122.554 135.033L133.046 164.603L135.377 164.836C139.898 165.05 144.409 165.438 148.9 166L133.512 111.051V122.46L132.113 118.501L124.186 96.1493L121.388 88.2328L121.155 88H106Z" fill="url(#paint4_linear_2_2)"/>
<path d="M106 88L121.388 131.773L122.554 135.033L133.046 164.603L135.377 164.836C139.898 165.051 144.409 165.439 148.9 166L133.512 122.46L132.113 118.501L124.186 96.1493L121.388 88.2328V88H106Z" fill="#E50914"/>
</g>
<defs>
<linearGradient id="paint0_linear_2_2" x1="302.5" y1="460" x2="133" y2="460" gradientUnits="userSpaceOnUse">
<stop stop-color="#00FF47"/>
<stop offset="1" stop-color="#00FF57" stop-opacity="0"/>
</linearGradient>
<linearGradient id="paint1_linear_2_2" x1="272.5" y1="460" x2="87.3358" y2="460" gradientUnits="userSpaceOnUse">
<stop stop-color="white"/>
<stop offset="1" stop-color="#00FF57" stop-opacity="0"/>
</linearGradient>
<linearGradient id="paint2_linear_2_2" x1="280" y1="460" x2="88.1752" y2="460" gradientUnits="userSpaceOnUse">
<stop stop-color="white"/>
<stop offset="1" stop-color="#00FF57" stop-opacity="0"/>
</linearGradient>
<linearGradient id="paint3_linear_2_2" x1="169.778" y1="460" x2="88.1752" y2="460" gradientUnits="userSpaceOnUse">
<stop stop-color="#7000FF"/>
<stop offset="1" stop-color="#00FF57" stop-opacity="0"/>
</linearGradient>
<linearGradient id="paint4_linear_2_2" x1="117.191" y1="130.376" x2="137.703" y2="123.374" gradientUnits="userSpaceOnUse">
<stop stop-color="#B20710"/>
<stop offset="0.5"/>
<stop offset="1" stop-color="#B20710"/>
</linearGradient>
<clipPath id="clip0_2_2">
<rect width="540" height="540" rx="40" fill="white"/>
</clipPath>
</defs>
</svg>
