<svg width="34" height="34" viewBox="0 0 34 34" fill="none" xmlns="http://www.w3.org/2000/svg">
<path d="M15.2018 11.9971H10.6688V16.5309H15.2018V11.9971ZM26.5344 16.5309H31.0685V11.9971H26.5344V16.5309ZM31.7333 9.06704H29.4663V11.3325L31.7333 11.3328V9.06704ZM0 15.8664V34H2.2668V31.733H4.5336V29.4661H6.80013V31.733H9.06639V34H13.6002V29.4661H20.4009L20.4006 34H24.9329V31.733H27.1997V29.4661H29.4667V31.733H31.7332V34H34V15.8664H31.7332V18.1333H29.4662V20.4003H24.9327V18.1333H22.6667V11.3332H24.9327V9.06772H29.4665V6.80089H27.1995V4.53386H22.6667V2.26703H20.3995V0H13.6001V2.26703H11.3323V4.53386H6.7998V6.80089H4.53354V9.06772H2.26674V15.8671L0 15.8664ZM18.1333 22.6665H22.6666V27.2001H18.1333V22.6665ZM6.79932 11.3331H9.06612V9.06758H13.6007V11.3331H15.8667V18.1331H13.6007V20.4002L13.5999 20.4052V20.4002H9.06614V18.1331H6.80015V18.135L6.79936 18.1331L6.79932 11.3331Z" fill="#FF00E5"/>
<path d="M15.2018 11.9971H10.6688V16.5309H15.2018V11.9971ZM26.5344 16.5309H31.0685V11.9971H26.5344V16.5309ZM31.7333 9.06704H29.4663V11.3325L31.7333 11.3328V9.06704ZM0 15.8664V34H2.2668V31.733H4.5336V29.4661H6.80013V31.733H9.06639V34H13.6002V29.4661H20.4009L20.4006 34H24.9329V31.733H27.1997V29.4661H29.4667V31.733H31.7332V34H34V15.8664H31.7332V18.1333H29.4662V20.4003H24.9327V18.1333H22.6667V11.3332H24.9327V9.06772H29.4665V6.80089H27.1995V4.53386H22.6667V2.26703H20.3995V0H13.6001V2.26703H11.3323V4.53386H6.7998V6.80089H4.53354V9.06772H2.26674V15.8671L0 15.8664ZM18.1333 22.6665H22.6666V27.2001H18.1333V22.6665ZM6.79932 11.3331H9.06612V9.06758H13.6007V11.3331H15.8667V18.1331H13.6007V20.4002L13.5999 20.4052V20.4002H9.06614V18.1331H6.80015V18.135L6.79936 18.1331L6.79932 11.3331Z" fill="url(#paint0_linear_37_320)" fill-opacity="0.9"/>
<defs>
<linearGradient id="paint0_linear_37_320" x1="28.5" y1="6.5" x2="3.5" y2="32.5" gradientUnits="userSpaceOnUse">
<stop stop-color="#0066FF"/>
<stop offset="1" stop-opacity="0"/>
</linearGradient>
</defs>
</svg>
